<?xml version="1.0" encoding="UTF-8" standalone="no"?>
<!-- Created with Inkscape (http://www.inkscape.org/) -->

<svg
   width="4096"
   height="3072"
   viewBox="0 0 4096 3071.9999"
   version="1.1"
   id="svg1"
   inkscape:version="1.3 (0e150ed6c4, 2023-07-21)"
   sodipodi:docname="flag_jolly_roger_stede_bonnet_large.svg"
   xml:space="preserve"
   xmlns:inkscape="http://www.inkscape.org/namespaces/inkscape"
   xmlns:sodipodi="http://sodipodi.sourceforge.net/DTD/sodipodi-0.dtd"
   xmlns="http://www.w3.org/2000/svg"
   xmlns:svg="http://www.w3.org/2000/svg"><sodipodi:namedview
     id="namedview1"
     pagecolor="#ffffff"
     bordercolor="#000000"
     borderopacity="0.25"
     inkscape:showpageshadow="2"
     inkscape:pageopacity="0.0"
     inkscape:pagecheckerboard="true"
     inkscape:deskcolor="#d1d1d1"
     inkscape:document-units="px"
     inkscape:zoom="0.11336104"
     inkscape:cx="1834.8456"
     inkscape:cy="1407.009"
     inkscape:window-width="1366"
     inkscape:window-height="705"
     inkscape:window-x="-8"
     inkscape:window-y="-8"
     inkscape:window-maximized="1"
     inkscape:current-layer="svg1" /><defs
     id="defs1" /><path
     id="field"
     style="fill:#000000;stroke-width:0;fill-opacity:1"
     d="M 0,0 H 4096 V 3072 H 0 Z"
     inkscape:label="field" /><path
     id="deaths_head"
     style="fill:#ffffff;fill-opacity:1;stroke:none;stroke-width:0;stroke-dasharray:none"
     d="m 1923.6502,523.99999 c -243.5209,55.27835 -512.5093,183.31044 -603.2573,432.05168 -50.9649,210.69863 -30.429,430.44373 38.517,634.23503 192.6112,131.1633 292.0427,342.3506 333.1183,572.8344 83.1913,137.2318 167.7258,330.342 334.0954,369.8337 224.6952,85.6478 362.4186,-221.2632 444.0794,-245.2033 145.6738,-143.1869 50.9733,-366.3737 156.5036,-525.3835 127.216,-146.9713 227.7181,-291.4791 150.0787,-489.982 42.6965,-186.9664 6.4057,-395.57186 -154.5525,-515.98586 -153.5769,-184.69354 -395.4164,-215.4992 -617.665,-220.56389 -26.7317,-5.3177 -53.6061,-10.6597 -80.9176,-11.83626 z m 158.2223,126.53154 -0.4076,3.97125 z m -686.8887,174.02448 c 25.5245,12.638 -27.2749,8.45647 0,0 z m 1374.2226,271.84639 c 32.9336,-4.1809 5.563,30.7868 0,0 z m -407.7191,143.4052 c 276.1381,-20.9337 134.6603,440.4855 -94.3732,278.8005 -136.45,-81.4873 -79.28,-308.0415 94.3732,-278.8005 z m -539.7957,31.812 c 280.0546,-23.0983 118.1753,403.1249 -102.6942,294.9925 -140.6595,-82.4244 -63.8095,-316.3187 102.6942,-294.9925 z m 970.0688,149.7522 c 22.9226,80.1021 -71.3829,190.1256 -20.18,73.3989 16.9248,-21.5011 1.9516,-53.6564 20.18,-73.3989 z m -692.4335,19.4658 c 13.4574,147.6184 168.8148,386.3998 32.552,483.6043 -29.3281,-116.7812 -60.3111,81.0273 -156.4673,-20.2332 23.8163,-183.6275 194.014,-265.7326 123.9153,-463.3711 z m -708.6543,116.9961 -0.105,5.361 z m 1346.3372,12.8184 c -0.9795,59.937 -69.5988,51.3474 0,0 z m -488.8976,50.6127 -0.1216,2.5651 z m 436.1487,8.8573 c 26.9268,27.4857 -78.6392,27.9405 0,0 z m -448.105,26.0358 c 9.1237,7.537 -8.9442,5.6824 0,0 z m 424.805,6.7333 c 22.6763,15.6657 -29.2526,5.6726 0,0 z m -365.4348,5.3513 -1.2562,4.296 z m 242.6576,7.2568 c -86.3835,151.4942 -39.7909,356.1709 -132.9514,487.8184 -149.878,71.1808 -365.5831,165.0664 -541.6086,58.7547 41.2007,14.6607 93.802,11.4728 22.8703,-60.1862 -196.1502,102.883 -95.4861,-241.5261 -192.3394,-340.621 -108.1758,-214.5747 229.2039,44.4339 105.3835,158.2713 -58.6707,48.6049 -14.3147,206.0389 22.329,115.1527 -18.6625,-20.2202 218.9789,-7.7937 205.6021,83.7608 58.0351,-114.684 247.8839,-66.2261 373.8458,-141.527 65.8233,-63.8645 -86.1341,-298.3478 106.9035,-348.6397 z m -285.4346,5.6259 c 48.0112,16.5371 -47.2898,25.3615 0,0 z m 32.2263,6.0638 c 25.163,22.8081 -44.1421,5.5694 0,0 z m 341.865,9.6169 c 8.3944,7.1737 -11.7728,3.2389 0,0 z m 10.4309,0.6991 3.962,0.4037 z m -352.7589,4.4289 c 15.3427,12.7578 -23.1348,5.0497 0,0 z m -29.9763,3.6647 c 12.5783,7.6877 -8.814,12.5011 0,0 z m 38.1232,2.7937 c -9.4256,43.7323 -30.836,20.0131 0,0 z m 323.0735,3.858 c 3.0134,22.8125 -19.2256,26.6776 0,0 z m -335.6942,2.1371 c 15.6861,5.1792 -15.6855,5.1798 0,0 z m 342.4136,0 -1.2564,4.2959 z m -366.6304,9.8876 c 63.0336,71.0594 -28.8745,88.2119 0,0 z m -2.37,7.6901 2.9521,9.6717 z m 351.3189,12.0846 c 8.4985,4.9363 -8.3247,2.8884 0,0 z M 2257,1745.1482 c -12.0587,4.9258 11.7509,2.076 0,0 z m 343.0653,5.686 -0.1823,11.7303 z m -2.1087,18.6632 c 7.2113,21.4534 -33.8922,20.9252 0,0 z m -339.9576,2.1026 -0.083,10.6883 z m 330.2643,20.6416 c 6.1063,32.2862 -37.5468,23.501 0,0 z m -322.1225,1.9611 c 11.3672,11.8749 -13.1146,10.0643 0,0 z m 309.5575,45.6004 -2.5983,9.9593 z m -464.5736,89.9087 c 45.7127,70.666 -34.7853,154.5181 -8.0759,23.9528 z m 26.2609,14.3032 c 8.2098,1.9764 -7.346,6.2942 0,0 z m 404.9164,7.5616 c 37.0701,39.6921 -31.7709,73.0596 0,0 z m -425.1094,5.0209 -1.9373,8.228 z m 423.9436,58.8048 c 12.8789,25.2552 -10.9302,16.5726 0,0 z m -431.3274,17.0839 c 15.3014,16.5463 -11.6112,29.3118 0,0 z m 319.9193,2.3003 c -141.9344,3.5793 23.4042,155.0977 0,0 z m 111.2068,12.5995 -0.9821,6.1591 z m 1.7312,8.5055 c 10.2815,27.8579 -13.8253,55.1574 0,0 z m -183.7627,8.4713 c -146.541,17.645 79.685,130.0742 0,0 z m -576.9505,6.025 6.7117,34.1626 z m 525.7351,4.9008 c -102.6033,37.3542 66.0196,115.8909 0,0 z m -50.6793,12.6126 c -58.0154,79.0669 57.4573,104.8473 0,0 z m -402.4994,2.811 c -57.2221,87.0228 83.3857,38.7711 14.2132,20.9167 l -5.0269,-13.2107 z m 687.7113,1.5921 2.6761,8.7554 z m -330.8174,6.6602 c -87.9642,45.7831 72.487,104.8766 0,0 z m -62.4897,5.0895 c -87.8806,102.625 104.2315,78.8457 0,0 z m 281.5992,0.094 c -109.5474,11.7913 24.9847,132.7273 0,0 z m -329.296,3.5444 c -143.0115,71.688 122.4011,116.7234 0,0 z m -200.8618,0.3955 c -85.5103,89.009 119.1385,59.788 0,0 z m 125.7555,0.2706 6.4755,0.1494 z m 516.4572,1.575 c 14.2599,3.6162 -5.7714,17.6389 0,0 z m -572.9045,0.7167 c -93.7516,103.3631 105.0742,50.0727 0,0 z m 134.8189,3.6263 c 25.6331,57.5224 -4.667,68.6939 0,0 z m 138.3849,2.1968 -1.2566,4.2964 z m -265.0747,3.1587 c 18.2041,8.7609 5.1292,28.3527 0,0 z m 61.2858,0.107 c 36.6408,26.5061 11.5336,81.0401 0,0 z m 339.2639,4.9564 c -106.1943,5.3183 29.1168,121.7229 0,0 z m 164.1314,7.158 -1.2232,6.5192 z m -754.3238,6.1711 c -30.9177,124.6665 105.2942,17.1746 0,0 z m 201.1664,2.6178 c 22.5392,40.8371 -39.615,20.9717 0,0 z m 330.487,6.1966 c -84.9846,23.4009 30.0103,115.572 0,0 z m 214.6268,2.592 1.2566,4.2958 z m -258.2307,8.8788 c -94.9195,12.5518 27.5008,138.945 0.7221,8.6262 z m -51.8238,18.5173 c -97.6932,39.3484 30.6298,130.5624 0,0 z m -280.0351,9.6041 c 50.6787,214.4411 119.1888,123.6977 84.8558,76.9281 56.1606,-113.5385 55.0025,60.2769 113.2429,-55.5443 -48.2102,-40.5989 -140.2513,1.553 -198.0987,-21.3838 z m 232.5014,0.4427 c -101.2539,33.7826 53.5571,114.8559 0,0 z m -346.8576,30.6705 2.4199,4.2194 z m 85.3226,18.1099 c 18.6193,6.0457 -33.6921,0.022 0,0 z m 533.1234,44.6045 c 13.6512,6.2824 -23.0977,18.8208 0,0 z m -50.3751,57.8307 -1.601,4.8683 z"
     inkscape:label="deaths_head"
     sodipodi:nodetypes="ccccccccccccccccccccccccccccccccccccccccccccccccccccccccccccccccccccccccccccccccccccccccccccccccccccccccccccccccccccccccccccccccccccccccccccccccccccccccccccccccccccccccccccccccccccccccccccccccccccccccccc" /></svg>
