<?xml version="1.0" encoding="UTF-8" standalone="no"?>
<!-- Created with Inkscape (http://www.inkscape.org/) -->

<svg
   width="4096"
   height="3072"
   viewBox="0 0 4096 3071.9999"
   version="1.1"
   id="svg1"
   inkscape:version="1.3 (0e150ed6c4, 2023-07-21)"
   sodipodi:docname="flag_jolly_roger_large.svg"
   xml:space="preserve"
   xmlns:inkscape="http://www.inkscape.org/namespaces/inkscape"
   xmlns:sodipodi="http://sodipodi.sourceforge.net/DTD/sodipodi-0.dtd"
   xmlns="http://www.w3.org/2000/svg"
   xmlns:svg="http://www.w3.org/2000/svg"><sodipodi:namedview
     id="namedview1"
     pagecolor="#ffffff"
     bordercolor="#000000"
     borderopacity="0.25"
     inkscape:showpageshadow="2"
     inkscape:pageopacity="0.0"
     inkscape:pagecheckerboard="true"
     inkscape:deskcolor="#d1d1d1"
     inkscape:document-units="px"
     inkscape:zoom="0.11336104"
     inkscape:cx="1834.8456"
     inkscape:cy="1407.009"
     inkscape:window-width="1366"
     inkscape:window-height="705"
     inkscape:window-x="-8"
     inkscape:window-y="-8"
     inkscape:window-maximized="1"
     inkscape:current-layer="svg1" /><defs
     id="defs1" /><path
     id="field"
     style="fill:#000000;stroke-width:0;fill-opacity:1"
     d="M 0,0 H 4096 V 3072 H 0 Z"
     inkscape:label="field" /><path
     id="skull_and_crossbones"
     style="fill:#ffffff;fill-opacity:1;stroke:none;stroke-width:0;stroke-dasharray:none"
     d="m 1959.9207,330.00001 c -132.1715,29.96827 -278.1656,99.37882 -327.4193,234.22991 -27.6613,114.22688 -16.5154,233.35818 20.9052,343.84034 104.5402,71.10808 158.5069,185.59994 180.8007,310.55304 45.1523,74.398 91.0336,179.0896 181.3311,200.4994 121.9538,46.4326 196.7035,-119.9543 241.0251,-132.933 79.0648,-77.6265 27.6659,-198.6237 84.9427,-284.8283 69.0468,-79.67811 123.5945,-158.02072 81.4556,-265.63586 23.1736,-101.36088 3.4767,-214.45298 -83.8838,-279.73351 -83.3542,-100.12864 -214.6131,-116.82944 -335.2391,-119.57518 -14.5087,-2.88291 -29.0948,-5.77899 -43.9182,-6.41684 z m 85.8755,68.59705 -0.2212,2.15295 z m -372.8104,94.34459 c 13.8535,6.85149 -14.8035,4.58454 0,0 z m 745.8625,147.37719 c 17.8748,-2.26661 3.0193,16.69054 0,0 z m -221.2905,77.74478 c 149.8746,-11.34883 73.0872,238.80218 -51.2213,151.14724 -74.0585,-44.177 -43.0294,-166.99977 51.2213,-151.14724 z m -292.9754,17.24637 c 152.0003,-12.52235 64.14,218.54775 -55.7375,159.92552 -76.3432,-44.68507 -34.6327,-171.48715 55.7375,-159.92552 z m 526.5071,81.18582 c 12.4413,43.42603 -38.7432,103.07353 -10.9527,39.79198 9.186,-11.65641 1.0592,-29.08896 10.9527,-39.79198 z m -375.8199,10.55306 c 7.3041,80.02889 91.6247,209.48043 17.6677,262.17833 -15.9179,-63.3111 -32.734,43.9276 -84.923,-10.9691 12.9264,-99.55076 105.3016,-144.06266 67.2553,-251.20923 z m -384.6237,63.42749 -0.057,2.90642 z m 730.7276,6.9493 c -0.5316,32.4939 -37.7749,27.83718 0,0 z m -265.3503,27.43888 -0.066,1.39067 z m 236.7207,4.80184 c 14.6146,14.90093 -42.6816,15.14749 0,0 z m -243.21,14.1149 c 4.9519,4.08607 -4.8545,3.08068 0,0 z m 230.5639,3.65035 c 12.3076,8.49292 -15.8769,3.07535 0,0 z m -198.3406,2.9011 -0.6818,2.32901 z m 131.703,3.93419 c -46.8849,82.13018 -21.5966,193.09238 -72.1597,264.46298 -81.3466,38.5895 -198.4211,89.4881 -293.9593,31.8529 22.3618,7.9481 50.9112,6.2198 12.4129,-32.629 -106.461,55.7764 -51.8253,-130.9395 -104.3927,-184.6622 -58.7126,-116.32828 124.401,24.0891 57.1972,85.8042 -31.8437,26.3504 -7.7694,111.7007 12.1191,62.4282 -10.1291,-10.962 118.8513,-4.2252 111.591,45.4096 31.4987,-62.1741 134.5396,-35.9034 202.9057,-76.7266 35.7257,-34.6231 -46.7495,-161.74446 58.0221,-189.00943 z m -154.9203,3.05001 c 26.0582,8.96531 -25.6666,13.74928 0,0 z m 17.4909,3.28739 c 13.6573,12.36505 -23.9582,3.01937 0,0 z m 185.548,5.21363 c 4.5561,3.8891 -6.3897,1.75598 0,0 z m 5.6614,0.37903 2.1504,0.21886 z m -191.4607,2.40105 c 8.3273,6.91641 -12.5565,2.73759 0,0 z m -16.2697,1.98675 c 6.8269,4.16777 -4.7838,6.77726 0,0 z m 20.6914,1.51458 c -5.1157,23.70878 -16.7363,10.84978 0,0 z m 175.3489,2.09157 c 1.6356,12.36741 -10.4347,14.46281 0,0 z m -182.1988,1.15855 c 8.5137,2.80786 -8.5133,2.80816 0,0 z m 185.8458,0 -0.6819,2.32896 z m -198.9895,5.36046 c 34.2116,38.52366 -15.6717,47.82266 0,0 z m -1.2863,4.169 1.6022,5.2434 z m 190.6791,6.5515 c 4.6126,2.6761 -4.5182,1.5659 0,0 z m -188.7533,0.5955 c -6.5449,2.6705 6.3778,1.1255 0,0 z m 186.1995,3.0826 -0.099,6.35936 z m -1.1445,10.11796 c 3.9139,11.6306 -18.3951,11.3443 0,0 z m -184.5128,1.1399 -0.045,5.7945 z m 179.2517,11.1905 c 3.3142,17.5034 -20.3786,12.7407 0,0 z m -174.8327,1.0632 c 6.1695,6.4378 -7.118,5.4562 0,0 z m 168.013,24.7215 -1.4102,5.3993 z m -252.1484,48.7426 c 24.8107,38.3104 -18.8798,83.7695 -4.3832,12.9856 z m 14.2532,7.7542 c 4.4559,1.0715 -3.9871,3.4123 0,0 z m 219.7693,4.0994 c 20.1199,21.5185 -17.2437,39.6081 0,0 z m -230.7291,2.722 -1.0515,4.4607 z m 230.0964,31.8801 c 6.99,13.6917 -5.9324,8.9846 0,0 z m -234.104,9.2618 c 8.3049,8.9703 -6.302,15.8909 0,0 z m 173.637,1.247 c -77.0353,1.9405 12.7026,84.0838 0,0 z m 60.3577,6.8307 -0.533,3.339 z m 0.9396,4.6111 c 5.5803,15.1027 -7.5037,29.9027 0,0 z m 469.2664,0.7607 c -100.6464,29.9474 -99.0253,160.9625 -201.0369,201.5855 -135.4486,112.8526 -259.3034,238.4626 -398.8874,346.5014 -56.6751,56.4218 -123.4169,112.859 -182.548,24.9861 -109.0186,-62.4295 -200.7099,-147.279 -299.1593,-224.025 -93.5727,-73.329 -196.4044,-134.217 -291.7219,-204.072 -26.814,-85.1011 -169.587,-160.0098 -212.8541,-59.2078 -65.2584,67.443 26.4249,188.1775 125.1331,183.0717 114.9057,74.5714 224.7411,155.686 332.8133,240.578 90.0677,65.6556 144.1066,96.8192 228.7663,164.5694 47.969,34.2755 106.9065,49.4264 25.8736,86.2608 -1.1396,29.1425 -124.2952,92.355 -163.3305,147.8047 39.2891,26.5372 -83.9115,-4.4524 0.5625,43.6502 72.8742,27.413 -18.4951,30.6331 -27.0619,-13.8671 -62.4434,64.4251 -134.472,134.9728 -186.6057,193.7852 -57.5343,63.2771 -173.3904,170.7415 -146.7484,142.7964 61.0753,-45.9336 -89.3514,19.4505 -126.2522,4.4663 -90.7897,9.6081 -106.3472,138.0752 -26.679,171.2225 45.6395,31.5632 84.1255,19.3858 116.8702,-28.8735 -79.0668,56.0242 -13.107,192.5034 57.8246,152.1796 124.841,9.7473 68.1835,-166.6857 123.4216,-234.5339 79.3398,-118.2498 197.1049,-203.1211 284.1521,-315.3014 77.2268,-73.6895 169.1019,-153.6838 261.0345,-195.4467 189.2531,152.2384 346.2001,340.3031 526.0156,503.1211 19.4026,89.4987 13.6909,258.5447 159.7138,213.3315 95.379,3.7608 40.8407,-160.7781 141.1365,-168.87 69.7204,-52.479 77.2853,-147.0575 -13.9409,-188.3455 -85.1749,-25.8457 -187.5852,25.9898 -246.5477,-53.8357 -43.028,-32.2328 -148.1708,-142.5469 -224.1746,-201.4789 -66.6308,-76.6532 -169.3983,-126.9483 -217.8083,-214.7876 68.1762,-54.6972 114.8037,-122.5043 196.2562,-173.2626 59.9222,-57.8312 134.5026,-111.5357 191.9004,-162.3514 86.9231,-62.4926 149.1204,-174.8851 262.8953,-188.5019 108.3201,-43.2022 34.5342,-206.2229 -69.0128,-193.1494 z m -569.004,3.8319 c -79.5355,9.5659 43.2492,70.5176 0,0 z m -313.1412,3.2663 3.6428,18.5207 z m 285.3439,2.6569 c -55.6882,20.251 35.8323,62.8284 0,0 z m -27.5063,6.8377 c -31.488,42.8649 31.1851,56.8413 0,0 z m 620.8954,1.1956 1.3133,2.2874 z m -839.3529,0.3284 c -31.0574,47.178 45.2578,21.0191 7.7143,11.3396 l -2.7284,-7.162 z m 373.2569,0.8631 1.4525,4.7466 z m -179.5519,3.6107 c -47.7428,24.8206 39.3425,56.8572 0,0 z m -33.9164,2.7592 c -47.6974,55.6365 56.5719,42.7449 0,0 z m 152.8386,0.051 c -59.4571,6.3925 13.5605,71.956 0,0 z m 501.843,1.3284 -0.7823,1.8215 z m -680.5692,0.5932 c -77.6198,38.8645 66.4335,63.2797 0,0 z m -109.0182,0.2144 c -46.4109,48.2548 64.6627,32.4131 0,0 z m 68.2541,0.1467 3.5146,0.081 z m 280.3084,0.8538 c 7.7396,1.9605 -3.1325,9.5627 0,0 z m -310.9453,0.3886 c -50.8839,56.0366 57.0293,27.1461 0,0 z m 73.1733,1.9659 c 13.9124,31.1849 -2.533,37.2413 0,0 z m 75.1087,1.191 -0.682,2.3292 z m -143.8699,1.7124 c 9.8803,4.7496 2.7839,15.371 0,0 z m 33.263,0.058 c 19.8869,14.3699 6.2599,43.9346 0,0 z m 184.1363,2.6871 c -57.6372,2.8832 15.8032,65.9901 0,0 z m 89.0827,3.8806 -0.6639,3.5342 z m -409.411,3.3455 c -16.7807,67.586 57.1487,9.311 0,0 z m 109.1835,1.4192 c 12.2332,22.1392 -21.5011,11.3695 0,0 z m 179.3726,3.3594 c -46.1256,12.6864 16.2882,62.6555 0,0 z m 116.4892,1.4052 0.682,2.3289 z m -140.1553,4.8135 c -51.5178,6.8048 14.9261,75.3268 0.3919,4.6766 z m -28.1275,10.0389 c -53.0232,21.3321 16.6244,70.7823 0,0 z m 562.5683,4.2064 0.6641,3.5342 z m -714.558,1.0003 c 27.506,116.2558 64.69,67.0607 46.0557,41.7053 30.4813,-61.5531 29.8527,32.6782 61.4628,-30.1124 -26.1662,-22.0101 -76.1217,0.8419 -107.5185,-11.5929 z m -636.5232,0.191 c 6.5812,2.8481 -6.5808,2.849 0,0 z m 762.7139,0.049 c -54.9558,18.3147 29.0682,62.2673 0,0 z m -188.2578,16.6275 1.3134,2.2875 z m 46.309,9.818 c 10.1057,3.2776 -18.2864,0.012 0,0 z m 289.354,24.1816 c 7.4092,3.4059 -12.5363,10.2034 0,0 z m -27.3412,31.352 -0.8689,2.6393 z m -1008.0869,34.7068 c 7.5293,16.6232 -2.2473,13.2349 0,0 z m 1418.8376,2.4197 c 27.7289,5.6013 -8.3773,3.9309 0,0 z m -1400.6373,9.4921 c 4.5589,3.8911 -6.3925,1.7564 0,0 z m 8.1477,6.2723 c 6.3782,1.5062 -2.7669,4.2142 0,0 z m 48.349,10.4041 c 4.6733,2.8712 -4.6736,2.8708 0,0 z m 1289.1884,17.8676 c 4.5535,3.8858 -6.3874,1.7522 0,0 z m -7.6035,3.3036 c 12.3435,1.1328 -5.2863,16.9412 0,0 z m -85.3775,52.8699 c 21.8982,13.2829 25.9367,27.7545 0,0 z m -1082.4791,39.1179 c 13.1505,-3.862 -2.9826,4.2739 0,0 z m 1206.5716,18.8377 -0.2213,2.1503 z m -312.8225,133.0389 c 5.1329,4.3852 -5.308,5.7541 0,0 z m -45.2158,36.9031 c 10.2281,0.2441 -0.5463,9.8423 0,0 z m -352.7585,0.9958 2.1502,0.2189 z m -138.711,3.9899 c 1.7242,10.481 -10.4721,-1.7271 0,0 z m -8.8129,5.1625 c 11.3191,6.925 -5.1453,6.5507 0,0 z m 462.6117,80.8042 -3.97,0.8722 z m -157.5997,29.9747 -0.6828,2.3298 z m -9.8689,7.6682 -3.045,4.1123 z m -12.8275,9.0083 c 5.649,1.5411 -7.6435,7.8013 0,0 z m -95.6465,2.1566 -0.2211,2.1531 z m -10.2131,3.641 c 11.7392,-1.0683 2.4045,8.4929 0,0 z m 95.0464,3.3432 -2.892,3.2209 z m -100.0123,0.6118 c 4.5781,4.4211 -7.2747,2.773 0,0 z m 79.8629,14.0685 c 4.8572,3.0826 -4.9549,4.0916 0,0 z m -8.8874,7.5495 c -0.09,7.0745 -5.8227,-0.7148 0,0 z m -9.6595,7.0516 c 1.088,7.6075 -5.9473,-0.2734 0,0 z m -11.1737,6.84 -2.781,4.8656 z m -50.2911,7.5262 2.1503,0.219 z m 247.9245,23.4442 -0.1689,4.5776 z m -10.6085,8.5127 c 20.2021,16.3066 -16.0269,13.0154 0,0 z m -22.9662,19.4496 -1.1127,1.9269 z m -10.8642,8.7406 -0.2212,2.153 z m -10.0736,6.7749 c 2.8027,6.5744 -7.3521,5.7616 0,0 z m -217.9389,7.4634 c 5.5789,5.0712 -13.9991,-3.5232 0,0 z m 18.726,1.4704 0.6821,2.3289 z m 186.6948,0.5677 -1.2089,6.4507 z m -190.793,0.6234 c 20.4625,6.3154 -14.3491,8.9605 0,0 z m -7.029,6.2723 c -13.0151,48.6493 20.9962,4.5631 0,0 z m 186.5482,4.2667 -1.5796,3.4921 z m -10.1968,8.2964 -0.2211,2.1531 z m -7.8198,4.988 -1.3132,2.2873 z m -11.2341,6.9238 -0.2211,2.153 z m -169.2527,1.4144 c 6.5147,3.9766 -8.4674,1.605 0,0 z m 11.7389,1.1913 c 27.8004,22.1064 8.0873,31.1862 0,0 z m -3.3448,3.5735 -0.6638,3.5343 z m -59.6343,32.9386 c 6.0669,3.8423 -8.2469,-0.228 0,0 z m -10.4433,0.763 4.7258,0.04 z m -4.4796,3.2246 c 4.6765,2.8752 -4.6769,2.8743 0,0 z m -1.2584,7.147 c 3.872,5.3276 -9.0359,10.4008 0,0 z m -0.7699,12.4353 2.2848,6.0896 z m -115.8681,48.9101 c 4.6127,2.6729 -4.5139,1.5684 0,0 z m 35.0865,4.5832 c 2.7765,7.2473 -13.7663,-0.9756 0,0 z m 27.939,27.2735 c 32.7175,30.0105 -9.5044,20.2539 0,0 z m -37.8776,5.6651 -1.3142,2.2903 z m 59.9366,6.6934 -0.063,1.3916 z m 4.3332,0.7631 4.616,2.7482 z m 18.8399,1.5472 -0.5328,3.339 z m -9.792,2.6848 -0.2211,2.1529 z m -71.0755,0.8212 c 4.612,2.6723 -4.5151,1.5639 0,0 z m 2.3026,2.9756 4.244,7.7426 z m 26.1202,0.8748 c 10.0329,4.2477 -4.7335,7.8584 0,0 z m -5.3404,2.6987 c 8.0845,0.4728 -4.2702,4.9273 0,0 z m 20.3844,3.6107 3.1011,1.9305 z m -123.1715,2.3452 c 1.8948,6.7859 -8.577,4.9642 0,0 z m 92.2089,1.952 c 6.8709,1.6814 -5.2278,3.8522 0,0 z m -124.416,137.7407 c 4.1531,6.1362 -12.3537,7.6058 0,0 z m -43.1992,80.6926 c 7.1216,11.1084 -18.8586,6.2504 0,0 z m 944.6589,2.366 c 4.6767,2.8741 -4.6765,2.8751 0,0 z m -1103.3474,70.6067 1.9341,4.9135 z m -156.5251,3.2454 -0.6821,2.3291 z m -1.2676,5.6581 -8.8554,5.7925 z m 1304.6069,12.1746 c 11.6325,4.4086 -17.6427,0.049 0,0 z m -1320.7954,5.8907 c 15.478,19.5287 -25.9988,3.8683 0,0 z m -23.6988,3.4944 c 5.9219,3.0834 -5.9219,3.0834 0,0 z m 10.1084,3.164 -0.7821,1.8216 z m -15.4672,4.1622 c 5.2105,5.7376 -5.2108,5.7362 0,0 z m -14.9371,0.3957 c 4.4015,3.2965 -5.9663,1.3892 0,0 z m -23.1709,5.5604 c 4.8585,3.0796 -4.9564,4.0913 0,0 z m 210.3376,3.5968 c 19.4106,16.0024 -24.959,9.1859 0,0 z m 17.7655,5.4788 c 18.5163,16.8391 -21.462,14.9069 0,0 z m -0.3488,6.4259 1.5079,1.3742 z m -218.7529,2.366 -0.682,2.3291 z m 9.9828,0 0.6821,2.3291 z m -22.8638,1.6775 -2.3134,2.9222 z m 181.3196,7.8495 c 14.5056,5.1643 -14.6903,1.3312 0,0 z m -183.3594,0.1443 c 9.097,7.6579 -10.3707,8.2766 0,0 z m 7.8988,4.3249 -0.057,2.904 z m -7.6965,3.9596 c 16.249,6.2265 -12.2592,8.4652 0,0 z m 214.5965,11.8095 c 22.3254,11.3888 -21.4677,18.6767 0,0 z m -149.4683,2.117 c 9.2309,2.2824 -5.9119,3.5792 0,0 z m -67.8169,1.4703 0.6824,2.3272 z m 40.3664,15.711 c -9.4383,25.2849 -35.0289,14.4226 0,0 z m -29.081,4.6949 c 13.8674,-1.9636 0.4337,7.681 0,0 z m 9.0292,4.0109 c 4.6127,2.673 -4.5141,1.5683 0,0 z m -0.5256,10.1249 -0.6812,2.328 z m 37.2193,9.9086 2.1504,0.219 z m -4.61,2.0054 0.6823,2.3272 z m 79.9861,23.8212 c 3.1637,7.7399 -10.8428,4.0909 0,0 z m 161.8307,7.147 c 4.6722,2.8731 -4.6721,2.8731 0,0 z m -126.779,5.9163 c 32.4244,24.2398 -33.3545,17.3035 0,0 z m -6.6103,18.5026 c 2.6374,16.2834 -7.7706,10.4912 0,0 z m 4.1796,2.9779 c 4.6804,2.878 -4.68,2.8789 0,0 z m -11.9087,5.5255 c 6.5466,2.6701 -6.3753,1.1271 0,0 z m 13.5114,8.0614 c -4.9272,25.0397 -43.2325,-8.1916 0,0 z m -3.5284,18.5747 1.314,2.2904 z m 24.7804,0.083 c 15.2551,-1.8717 -4.7301,5.0065 0,0 z m -17.4957,13.0216 c 6.5823,2.8463 -6.5823,2.8463 0,0 z m -9.9504,2.1798 c 25.8275,1.5859 -23.3332,7.3015 0,0 z m 17.7818,3.9992 c -23.2701,14.809 -14.6148,-3.6678 0,0 z m -26.5597,0.968 -4.8967,2.548 z m 103.329,3.7713 c 18.1992,-3.7867 -5.4143,18.356 0,0 z m -73.485,9.3292 c 32.2367,13.3901 -19.1643,18.8359 0,0 z m -17.8538,1.931 c 23.6893,8.9541 -18.4087,21.4526 0,0 z m 89.5037,7.5983 c 6.3565,1.1665 -6.5144,2.6493 0,0 z m -43.504,13.103 -0.664,3.5343 z"
     inkscape:label="skull_and_crossbones" /></svg>
