<?xml version="1.0" encoding="UTF-8" standalone="no"?>
<!-- Created with Inkscape (http://www.inkscape.org/) -->

<svg
   width="120"
   height="88"
   viewBox="0 0 120 88"
   version="1.1"
   id="svg1"
   xml:space="preserve"
   inkscape:version="1.3 (0e150ed6c4, 2023-07-21)"
   sodipodi:docname="drawing.svg"
   xmlns:inkscape="http://www.inkscape.org/namespaces/inkscape"
   xmlns:sodipodi="http://sodipodi.sourceforge.net/DTD/sodipodi-0.dtd"
   xmlns="http://www.w3.org/2000/svg"
   xmlns:svg="http://www.w3.org/2000/svg"><sodipodi:namedview
     id="namedview1"
     pagecolor="#ffffff"
     bordercolor="#000000"
     borderopacity="0.25"
     inkscape:showpageshadow="2"
     inkscape:pageopacity="0.0"
     inkscape:pagecheckerboard="true"
     inkscape:deskcolor="#d1d1d1"
     inkscape:document-units="px"
     inkscape:zoom="5.1301351"
     inkscape:cx="55.846483"
     inkscape:cy="32.455286"
     inkscape:window-width="1366"
     inkscape:window-height="705"
     inkscape:window-x="-8"
     inkscape:window-y="-8"
     inkscape:window-maximized="1"
     inkscape:current-layer="svg1"
     showguides="false" /><defs
     id="defs1" /><path
     id="bottom_bar"
     style="fill:#e40310;stroke-width:0;stroke:none;stroke-dasharray:none"
     d="M 0,44 H 120 V 88 H 0 Z"
     inkscape:label="bottom_bar" /><path
     id="top_bar"
     style="fill:#00962c;stroke-width:0;stroke:none;stroke-dasharray:none"
     d="M 0,0 H 120 V 45 H 0 Z"
     inkscape:label="top_bar" /><path
     id="crescent_maker"
     style="fill:#f9b307;stroke-width:0;stroke:none;stroke-dasharray:none"
     d="m 37.5,22.5 a 15,15 0 0 1 -15,15 15,15 0 0 1 -15,-15 15,15 0 0 1 15,-15 15,15 0 0 1 15,15 z"
     inkscape:label="crescent_maker" /><path
     id="crescent"
     style="fill:#00962c;stroke-width:0;stroke:none;stroke-dasharray:none"
     d="m 47,22.5 a 15,15 0 0 1 -15,15 15,15 0 0 1 -15,-15 15,15 0 0 1 15,-15 15,15 0 0 1 15,15 z"
     inkscape:label="crescent" /></svg>
